<svg xmlns="http://www.w3.org/2000/svg" width="32" height="32" viewBox="-7.27 -7.27 46.55 46.55"><path d="M.843.734v30.532H3.04v.733H0V0h3.04v.733zm9.391 9.68v1.543h.044a4.417 4.417 0 0 1 1.489-1.365c.577-.327 1.248-.487 2-.487.72 0 1.377.143 1.975.419.597.277 1.047.776 1.36 1.477.339-.499.8-.941 1.379-1.323.579-.383 1.267-.573 2.061-.573.604 0 1.163.075 1.68.223a3.34 3.34 0 0 1 1.324.707c.368.327.652.745.861 1.268.203.523.307 1.151.307 1.889v7.637h-3.132v-6.468c0-.381-.013-.745-.043-1.083a2.315 2.315 0 0 0-.246-.893l.006.013a1.484 1.484 0 0 0-.577-.593l-.007-.004c-.259-.147-.609-.221-1.047-.221-.443 0-.8.085-1.071.252-.267.166-.483.39-.635.656l-.005.009a2.558 2.558 0 0 0-.307.915l-.002.013a7.156 7.156 0 0 0-.08 1.044v6.359h-3.133v-6.4c0-.339-.005-.671-.024-1.003a2.772 2.772 0 0 0-.197-.936l.007.019a1.41 1.41 0 0 0-.548-.667l-.006-.003c-.259-.167-.635-.253-1.139-.253-.148 0-.345.032-.585.099-.24.068-.48.191-.707.376-.228.184-.425.449-.585.793-.16.345-.24.8-.24 1.36v6.621H7.279v-11.42zm20.923 20.852V.734H28.96V.001H32V32h-3.04v-.733z"/></svg>