<svg xmlns="http://www.w3.org/2000/svg" width="32" height="32" viewBox="-7.27 -7.27 46.55 46.55"><path d="M30.924 10.506c0-6.941-4.548-8.976-4.548-8.976C24.083.477 20.144.034 16.054.001h-.101C11.862.034 7.926.477 5.633 1.53c0 0-4.548 2.035-4.548 8.976 0 1.589-.031 3.491.02 5.505.165 6.79 1.245 13.479 7.522 15.14 2.893.765 5.379.927 7.38.816 3.629-.2 5.667-1.296 5.667-1.296l-.12-2.633s-2.593.817-5.505.719c-2.887-.099-5.932-.311-6.399-3.855a7.069 7.069 0 0 1-.064-.967v-.028.001s2.833.693 6.423.857c2.195.1 4.253-.129 6.344-.377 4.009-.479 7.5-2.949 7.939-5.207.689-3.553.633-8.676.633-8.676zm-5.366 8.945h-3.329v-8.159c0-1.72-.724-2.592-2.171-2.592-1.6 0-2.403 1.035-2.403 3.083v4.465h-3.311v-4.467c0-2.048-.803-3.083-2.403-3.083-1.447 0-2.171.873-2.171 2.592v8.159H6.441v-8.404c0-1.719.437-3.084 1.316-4.093.907-1.011 2.092-1.528 3.565-1.528 1.704 0 2.995.655 3.848 1.965l.828 1.391.829-1.391c.853-1.311 2.144-1.965 3.848-1.965 1.472 0 2.659.517 3.565 1.528.877 1.009 1.315 2.375 1.315 4.093z"/></svg>